<svg xmlns="http://www.w3.org/2000/svg" xmlns:xlink="http://www.w3.org/1999/xlink" width="2000" zoomAndPan="magnify" viewBox="0 0 1500 1499.999933" height="2000" preserveAspectRatio="xMidYMid meet" version="1.0"><defs><filter x="0%" y="0%" width="100%" height="100%" id="a746d4d464"><feColorMatrix values="0 0 0 0 1 0 0 0 0 1 0 0 0 0 1 0 0 0 1 0" color-interpolation-filters="sRGB"/></filter><mask id="23ae79385b"><g filter="url(#a746d4d464)"><rect x="-150" width="1800" fill="#000000" y="-149.999993" height="1799.99992" fill-opacity="0.6"/></g></mask><clipPath id="40883a5c3d"><path d="M 1.617188 1.0625 L 856.835938 1.0625 L 856.835938 448.152344 L 1.617188 448.152344 Z M 1.617188 1.0625 " clip-rule="nonzero"/></clipPath><clipPath id="6d2fd9d726"><rect x="0" width="859" y="0" height="450"/></clipPath><clipPath id="3e8776110f"><path d="M 321 54.074219 L 751 54.074219 L 751 1018 L 321 1018 Z M 321 54.074219 " clip-rule="nonzero"/></clipPath><mask id="e7cb2d3fe6"><g filter="url(#a746d4d464)"><rect x="-150" width="1800" fill="#000000" y="-149.999993" height="1799.99992" fill-opacity="0.4471"/></g></mask><clipPath id="84f1434cc5"><path d="M 1.617188 0.0742188 L 429.308594 0.0742188 L 429.308594 962.152344 L 1.617188 962.152344 Z M 1.617188 0.0742188 " clip-rule="nonzero"/></clipPath><clipPath id="6ceeba5090"><rect x="0" width="430" y="0" height="964"/></clipPath><clipPath id="3cc78e9f4d"><path d="M 750 54.074219 L 1180 54.074219 L 1180 1018 L 750 1018 Z M 750 54.074219 " clip-rule="nonzero"/></clipPath><mask id="a32f2e12da"><g filter="url(#a746d4d464)"><rect x="-150" width="1800" fill="#000000" y="-149.999993" height="1799.99992" fill-opacity="0.8"/></g></mask><clipPath id="c9bae8f0d3"><path d="M 0.308594 0.0742188 L 428 0.0742188 L 428 962.152344 L 0.308594 962.152344 Z M 0.308594 0.0742188 " clip-rule="nonzero"/></clipPath><clipPath id="7c58e10a0e"><rect x="0" width="430" y="0" height="964"/></clipPath><clipPath id="70e68c023b"><path d="M 321 843 L 751 843 L 751 1446.074219 L 321 1446.074219 Z M 321 843 " clip-rule="nonzero"/></clipPath><mask id="fad57bdada"><g filter="url(#a746d4d464)"><rect x="-150" width="1800" fill="#000000" y="-149.999993" height="1799.99992" fill-opacity="0.4471"/></g></mask><clipPath id="a80f958316"><path d="M 1.617188 1.542969 L 429.308594 1.542969 L 429.308594 603.074219 L 1.617188 603.074219 Z M 1.617188 1.542969 " clip-rule="nonzero"/></clipPath><clipPath id="c3f5b12ab9"><rect x="0" width="430" y="0" height="604"/></clipPath><clipPath id="2e5e3b403a"><path d="M 750 843 L 1180 843 L 1180 1446.074219 L 750 1446.074219 Z M 750 843 " clip-rule="nonzero"/></clipPath><mask id="348bc9686d"><g filter="url(#a746d4d464)"><rect x="-150" width="1800" fill="#000000" y="-149.999993" height="1799.99992" fill-opacity="0.8"/></g></mask><clipPath id="4a42070a6f"><path d="M 0.308594 1.542969 L 428.171875 1.542969 L 428.171875 603.074219 L 0.308594 603.074219 Z M 0.308594 1.542969 " clip-rule="nonzero"/></clipPath><clipPath id="f277f12480"><rect x="0" width="430" y="0" height="604"/></clipPath></defs><g mask="url(#23ae79385b)"><g transform="matrix(1, 0, 0, 1, 321, 568)"><g clip-path="url(#6d2fd9d726)"><g clip-path="url(#40883a5c3d)"><path fill="#004aad" d="M 429.308594 1.0625 L 1.617188 195.53125 L 429.308594 448.152344 L 856.835938 195.53125 Z M 429.308594 1.0625 " fill-opacity="1" fill-rule="nonzero"/></g></g></g></g><g clip-path="url(#3e8776110f)"><g mask="url(#e7cb2d3fe6)"><g transform="matrix(1, 0, 0, 1, 321, 54)"><g clip-path="url(#6ceeba5090)"><g clip-path="url(#84f1434cc5)"><path fill="#004aad" d="M 1.617188 709.53125 L 429.308594 962.152344 L 429.308594 0.0742188 Z M 1.617188 709.53125 " fill-opacity="1" fill-rule="nonzero"/></g></g></g></g></g><g clip-path="url(#3cc78e9f4d)"><g mask="url(#a32f2e12da)"><g transform="matrix(1, 0, 0, 1, 750, 54)"><g clip-path="url(#7c58e10a0e)"><g clip-path="url(#c9bae8f0d3)"><path fill="#004aad" d="M 0.308594 0.0742188 L 0.308594 962.152344 L 427.835938 709.53125 Z M 0.308594 0.0742188 " fill-opacity="1" fill-rule="nonzero"/></g></g></g></g></g><g clip-path="url(#70e68c023b)"><g mask="url(#fad57bdada)"><g transform="matrix(1, 0, 0, 1, 321, 843)"><g clip-path="url(#c3f5b12ab9)"><g clip-path="url(#a80f958316)"><path fill="#004aad" d="M 1.617188 1.542969 L 429.308594 603.933594 L 429.308594 254.164062 Z M 1.617188 1.542969 " fill-opacity="1" fill-rule="nonzero"/></g></g></g></g></g><g clip-path="url(#2e5e3b403a)"><g mask="url(#348bc9686d)"><g transform="matrix(1, 0, 0, 1, 750, 843)"><g clip-path="url(#f277f12480)"><g clip-path="url(#4a42070a6f)"><path fill="#004aad" d="M 0.308594 254.164062 L 0.308594 603.933594 L 428.171875 1.542969 Z M 0.308594 254.164062 " fill-opacity="1" fill-rule="nonzero"/></g></g></g></g></g></svg>