<svg xmlns="http://www.w3.org/2000/svg" xmlns:xlink="http://www.w3.org/1999/xlink" width="2000" zoomAndPan="magnify" viewBox="0 0 1500 1499.999933" height="2000" preserveAspectRatio="xMidYMid meet" version="1.0"><defs><clipPath id="e5e511d02e"><path d="M 59.769531 1026 L 479 1026 L 479 1341 L 59.769531 1341 Z M 59.769531 1026 " clip-rule="nonzero"/></clipPath><clipPath id="3a0abed716"><path d="M 59.769531 653 L 683 653 L 683 1168 L 59.769531 1168 Z M 59.769531 653 " clip-rule="nonzero"/></clipPath></defs><path fill="#e27625" d="M 131.34375 91.628906 L 670.046875 500.914062 L 582.371094 265.113281 Z M 131.34375 91.628906 " fill-opacity="1" fill-rule="nonzero"/><g clip-path="url(#e5e511d02e)"><path fill="#e27625" d="M 59.769531 1028.453125 L 163.851562 1340.726562 L 478.253906 1236.636719 L 327.921875 1026.195312 Z M 59.769531 1028.453125 " fill-opacity="1" fill-rule="nonzero"/></g><path fill="#e27625" d="M 452.265625 625.097656 L 369.867188 785.570312 L 686.457031 794.246094 L 656.097656 438.601562 Z M 452.265625 625.097656 " fill-opacity="1" fill-rule="nonzero"/><path fill="#e27625" d="M 478.289062 1236.636719 L 652.835938 1167.242188 L 495.636719 1028.453125 Z M 478.289062 1236.636719 " fill-opacity="1" fill-rule="nonzero"/><path fill="#d7ccc8" d="M 478.289062 1236.636719 L 645.238281 1336.390625 L 652.835938 1167.242188 Z M 478.289062 1236.636719 " fill-opacity="1" fill-rule="nonzero"/><path fill="#cc6228" d="M 478.253906 1236.636719 L 495.601562 1028.453125 L 326.464844 1028.453125 Z M 478.253906 1236.636719 " fill-opacity="1" fill-rule="nonzero"/><path fill="#fb8c00" d="M 673.445312 785.570312 L 646.488281 953.992188 L 682.429688 1139.066406 L 690.480469 895.144531 Z M 673.445312 785.570312 " fill-opacity="1" fill-rule="nonzero"/><path fill="#763e1a" d="M 61.953125 299.8125 L 166.039062 750.875 L 455.042969 653.894531 L 651.761719 473.296875 L 131.34375 91.628906 Z M 61.953125 299.8125 " fill-opacity="1" fill-rule="nonzero"/><g clip-path="url(#3a0abed716)"><path fill="#fb8c00" d="M 651.761719 933.035156 L 374.203125 785.570312 L 455.007812 653.894531 L 166.003906 750.875 L 59.769531 1028.453125 L 495.636719 1028.453125 L 652.835938 1167.242188 L 682.394531 1139.066406 Z M 651.761719 933.035156 " fill-opacity="1" fill-rule="nonzero"/></g><path fill="#cc6228" d="M 495.636719 907.011719 L 651.761719 959.058594 L 673.445312 785.570312 L 374.203125 785.570312 Z M 495.636719 907.011719 " fill-opacity="1" fill-rule="nonzero"/><path fill="#212121" d="M 651.761719 959.058594 L 495.636719 907.011719 L 604.054688 854.964844 Z M 651.761719 959.058594 " fill-opacity="1" fill-rule="nonzero"/><path fill="#e27625" d="M 928.136719 265.113281 L 840.429688 500.914062 L 1379.167969 91.628906 Z M 928.136719 265.113281 " fill-opacity="1" fill-rule="nonzero"/><path fill="#e27625" d="M 1182.585938 1026.195312 L 1033.402344 1236.636719 L 1346.65625 1340.726562 L 1450.742188 1028.453125 Z M 1182.585938 1026.195312 " fill-opacity="1" fill-rule="nonzero"/><path fill="#e27625" d="M 851.253906 447.273438 L 835.640625 797.265625 L 1140.640625 785.570312 L 1068.058594 646.78125 Z M 851.253906 447.273438 " fill-opacity="1" fill-rule="nonzero"/><path fill="#e27625" d="M 1014.875 1028.453125 L 858.816406 1167.242188 L 1033.367188 1236.636719 Z M 1014.875 1028.453125 " fill-opacity="1" fill-rule="nonzero"/><path fill="#d7ccc8" d="M 858.816406 1167.242188 L 865.269531 1336.390625 L 1033.402344 1236.636719 Z M 858.816406 1167.242188 " fill-opacity="1" fill-rule="nonzero"/><path fill="#cc6228" d="M 1184.007812 1028.453125 L 1014.875 1028.453125 L 1033.367188 1236.636719 Z M 1184.007812 1028.453125 " fill-opacity="1" fill-rule="nonzero"/><path fill="#bcaaa4" d="M 871.757812 1321.539062 L 871.757812 1271.332031 L 638.75 1271.332031 L 638.75 1321.539062 L 478.289062 1236.636719 L 651.761719 1375.421875 L 858.75 1375.421875 L 1033.402344 1236.636719 Z M 871.757812 1321.539062 " fill-opacity="1" fill-rule="nonzero"/><path fill="#763e1a" d="M 1379.167969 91.628906 L 859.929688 473.296875 L 1055.5 653.894531 L 1345.617188 750.875 L 1448.554688 299.8125 Z M 1379.167969 91.628906 " fill-opacity="1" fill-rule="nonzero"/><path fill="#fb8c00" d="M 1345.652344 750.875 L 1055.5 653.894531 L 1136.304688 785.570312 L 862.496094 944.347656 L 837.0625 785.570312 L 820.0625 895.144531 L 828.113281 1139.066406 L 828.148438 1138.824219 L 828.113281 1139.066406 L 858.816406 1167.242188 L 1014.875 1028.453125 L 1450.742188 1028.453125 Z M 1345.652344 750.875 " fill-opacity="1" fill-rule="nonzero"/><path fill="#fb8c00" d="M 582.371094 265.113281 L 651.761719 473.296875 L 674.867188 797.265625 L 681.839844 895.664062 L 682.394531 1139.066406 L 755.21875 1139.066406 L 755.21875 1137.503906 L 755.289062 1139.066406 L 828.113281 1139.066406 L 828.667969 895.664062 L 835.640625 797.265625 L 859.929688 473.296875 L 929.316406 265.113281 Z M 582.371094 265.113281 " fill-opacity="1" fill-rule="nonzero"/><path fill="#212121" d="M 859.929688 1167.242188 L 827.316406 1132.542969 L 683.195312 1132.542969 L 651.761719 1167.242188 L 638.75 1271.332031 L 871.757812 1271.332031 Z M 859.929688 1167.242188 " fill-opacity="1" fill-rule="nonzero"/><path fill="#cc6228" d="M 1136.304688 785.570312 L 837.0625 785.570312 L 858.75 959.058594 L 1014.875 907.011719 Z M 1136.304688 785.570312 " fill-opacity="1" fill-rule="nonzero"/><path fill="#212121" d="M 907.632812 854.964844 L 1014.910156 907.011719 L 858.78125 959.058594 Z M 907.632812 854.964844 " fill-opacity="1" fill-rule="nonzero"/></svg>